<svg width="21" height="19" viewBox="0 0 21 19" fill="none" xmlns="http://www.w3.org/2000/svg">
<g clip-path="url(#clip0_5_2)">
<path d="M10.1464 2.35355L10.5 2.70711L10.8536 2.35355C11.7936 1.41346 13.3138 0.5 15 0.5C17.7316 0.5 20 2.74484 20 6C20 9.30661 18.2312 11.9341 16.0945 13.9487C14.2003 15.7347 12.0666 16.9937 10.7223 17.7868C10.6456 17.8321 10.5714 17.8759 10.5 17.9181C10.4286 17.8759 10.3544 17.8321 10.2777 17.7868C8.93342 16.9937 6.79969 15.7347 4.90551 13.9487C2.76881 11.9341 1 9.30661 1 6C1 2.74715 3.30427 0.5 6 0.5C7.68616 0.5 9.20636 1.41346 10.1464 2.35355Z" stroke="#ED2E7E"/>
</g>
<defs>
<clipPath id="clip0_5_2">
<rect width="21" height="19" fill="white"/>
</clipPath>
</defs>
</svg>
